HIERARCHY
ROOT Hips
{
    OFFSET 0.000000 0.000000 0.000000
    CHANNELS 6 Xposition Yposition Zposition Zrotation Xrotation Yrotation
    JOINT Spine
    {
        OFFSET -0.000000 7.284621 0.000000
        CHANNELS 3 Zrotation Xrotation Yrotation
        JOINT Spine1
        {
            OFFSET -0.000000 19.968920 0.000000
            CHANNELS 3 Zrotation Xrotation Yrotation
            JOINT Neck
            {
                OFFSET -0.000000 21.745657 0.000000
                CHANNELS 3 Zrotation Xrotation Yrotation
                JOINT Head
                {
                    OFFSET -0.000000 13.769711 1.776737
                    CHANNELS 3 Zrotation Xrotation Yrotation
                    End Site
                    {
                        OFFSET -0.000000 17.767368 0.000000
                    }
                }
            }
            JOINT LeftShoulder
            {
                OFFSET 3.594505 17.711157 -0.013107
                CHANNELS 3 Zrotation Xrotation Yrotation
                JOINT LeftArm
                {
                    OFFSET 12.210003 0.000000 0.000000
                    CHANNELS 3 Zrotation Xrotation Yrotation
                    JOINT LeftForeArm
                    {
                        OFFSET 24.535166 0.000000 0.000000
                        CHANNELS 3 Zrotation Xrotation Yrotation
                        JOINT LeftHand
                        {
                            OFFSET 20.235195 0.000000 0.000000
                            CHANNELS 3 Zrotation Xrotation Yrotation
                            JOINT LeftHandThumb1
                            {
                                OFFSET 1.906737 -2.166747 3.033446
                                CHANNELS 3 Zrotation Xrotation Yrotation
                                JOINT LeftHandThumb2
                                {
                                    OFFSET 2.043247 0.000000 1.332553
                                    CHANNELS 3 Zrotation Xrotation Yrotation
                                    JOINT LeftHandThumb3
                                    {
                                        OFFSET 2.665105 0.000000 0.000000
                                        CHANNELS 3 Zrotation Xrotation Yrotation
                                        End Site
                                        {
                                            OFFSET 2.367595 0.000000 0.000000
                                        }
                                    }
                                }
                            }
                            JOINT LeftHandIndex1
                            {
                                OFFSET 7.800290 0.000000 3.033446
                                CHANNELS 3 Zrotation Xrotation Yrotation
                                JOINT LeftHandIndex2
                                {
                                    OFFSET 4.441842 0.000000 0.000000
                                    CHANNELS 3 Zrotation Xrotation Yrotation
                                    JOINT LeftHandIndex3
                                    {
                                        OFFSET 2.220921 0.000000 0.000000
                                        CHANNELS 3 Zrotation Xrotation Yrotation
                                        End Site
                                        {
                                            OFFSET 1.972996 0.000000 0.000000
                                        }
                                    }
                                }
                            }
                            JOINT LeftHandMiddle1
                            {
                                OFFSET 7.800290 0.000000 1.005371
                                CHANNELS 3 Zrotation Xrotation Yrotation
                                JOINT LeftHandMiddle2
                                {
                                    OFFSET 4.886026 0.000000 0.000000
                                    CHANNELS 3 Zrotation Xrotation Yrotation
                                    JOINT LeftHandMiddle3
                                    {
                                        OFFSET 2.665105 0.000000 0.000000
                                        CHANNELS 3 Zrotation Xrotation Yrotation
                                        End Site
                                        {
                                            OFFSET 2.367595 0.000000 0.000000
                                        }
                                    }
                                }
                            }
                            JOINT LeftHandRing1
                            {
                                OFFSET 7.366940 0.000000 -1.005371
                                CHANNELS 3 Zrotation Xrotation Yrotation
                                JOINT LeftHandRing2
                                {
                                    OFFSET 4.441842 0.000000 0.000000
                                    CHANNELS 3 Zrotation Xrotation Yrotation
                                    JOINT LeftHandRing3
                                    {
                                        OFFSET 2.220921 0.000000 0.000000
                                        CHANNELS 3 Zrotation Xrotation Yrotation
                                        End Site
                                        {
                                            OFFSET 1.972996 0.000000 0.000000
                                        }
                                    }
                                }
                            }
                            JOINT LeftHandPinky1
                            {
                                OFFSET 6.933591 0.000000 -3.033446
                                CHANNELS 3 Zrotation Xrotation Yrotation
                                JOINT LeftHandPinky2
                                {
                                    OFFSET 3.553473 0.000000 0.000000
                                    CHANNELS 3 Zrotation Xrotation Yrotation
                                    JOINT LeftHandPinky3
                                    {
                                        OFFSET 1.776737 0.000000 0.000000
                                        CHANNELS 3 Zrotation Xrotation Yrotation
                                        End Site
                                        {
                                            OFFSET 1.578397 0.000000 0.000000
                                        }
                                    }
                                }
                            }
                        }
                    }
                }
            }
            JOINT RightShoulder
            {
                OFFSET -3.500468 17.711157 -0.013107
                CHANNELS 3 Zrotation Xrotation Yrotation
                JOINT RightArm
                {
                    OFFSET -12.210003 0.000000 0.000000
                    CHANNELS 3 Zrotation Xrotation Yrotation
                    JOINT RightForeArm
                    {
                        OFFSET -24.535166 0.000000 0.000000
                        CHANNELS 3 Zrotation Xrotation Yrotation
                        JOINT RightHand
                        {
                            OFFSET -20.235195 0.000000 0.000000
                            CHANNELS 3 Zrotation Xrotation Yrotation
                            JOINT RightHandThumb1
                            {
                                OFFSET -1.906737 -2.166747 3.033446
                                CHANNELS 3 Zrotation Xrotation Yrotation
                                JOINT RightHandThumb2
                                {
                                    OFFSET -2.043247 0.000000 1.332553
                                    CHANNELS 3 Zrotation Xrotation Yrotation
                                    JOINT RightHandThumb3
                                    {
                                        OFFSET -2.665105 0.000000 0.000000
                                        CHANNELS 3 Zrotation Xrotation Yrotation
                                        End Site
                                        {
                                            OFFSET -2.367595 0.000000 0.000000
                                        }
                                    }
                                }
                            }
                            JOINT RightHandIndex1
                            {
                                OFFSET -7.800290 0.000000 3.033446
                                CHANNELS 3 Zrotation Xrotation Yrotation
                                JOINT RightHandIndex2
                                {
                                    OFFSET -4.441842 0.000000 0.000000
                                    CHANNELS 3 Zrotation Xrotation Yrotation
                                    JOINT RightHandIndex3
                                    {
                                        OFFSET -2.220921 0.000000 0.000000
                                        CHANNELS 3 Zrotation Xrotation Yrotation
                                        End Site
                                        {
                                            OFFSET -1.972996 0.000000 0.000000
                                        }
                                    }
                                }
                            }
                            JOINT RightHandMiddle1
                            {
                                OFFSET -7.800290 0.000000 1.005371
                                CHANNELS 3 Zrotation Xrotation Yrotation
                                JOINT RightHandMiddle2
                                {
                                    OFFSET -4.886026 0.000000 0.000000
                                    CHANNELS 3 Zrotation Xrotation Yrotation
                                    JOINT RightHandMiddle3
                                    {
                                        OFFSET -2.665105 0.000000 0.000000
                                        CHANNELS 3 Zrotation Xrotation Yrotation
                                        End Site
                                        {
                                            OFFSET -2.367595 0.000000 0.000000
                                        }
                                    }
                                }
                            }
                            JOINT RightHandRing1
                            {
                                OFFSET -7.366940 0.000000 -1.005371
                                CHANNELS 3 Zrotation Xrotation Yrotation
                                JOINT RightHandRing2
                                {
                                    OFFSET -4.441842 0.000000 0.000000
                                    CHANNELS 3 Zrotation Xrotation Yrotation
                                    JOINT RightHandRing3
                                    {
                                        OFFSET -2.220921 0.000000 0.000000
                                        CHANNELS 3 Zrotation Xrotation Yrotation
                                        End Site
                                        {
                                            OFFSET -1.972996 0.000000 0.000000
                                        }
                                    }
                                }
                            }
                            JOINT RightHandPinky1
                            {
                                OFFSET -6.933591 0.000000 -3.033446
                                CHANNELS 3 Zrotation Xrotation Yrotation
                                JOINT RightHandPinky2
                                {
                                    OFFSET -3.553473 0.000000 0.000000
                                    CHANNELS 3 Zrotation Xrotation Yrotation
                                    JOINT RightHandPinky3
                                    {
                                        OFFSET -1.776737 0.000000 0.000000
                                        CHANNELS 3 Zrotation Xrotation Yrotation
                                        End Site
                                        {
                                            OFFSET -1.578397 0.000000 0.000000
                                        }
                                    }
                                }
                            }
                        }
                    }
                }
            }
        }
    }
    JOINT LeftUpLeg
    {
        OFFSET 8.883684 0.000000 0.000000
        CHANNELS 3 Zrotation Xrotation Yrotation
        JOINT LeftLeg
        {
            OFFSET -0.000000 -38.184189 0.000000
            CHANNELS 3 Zrotation Xrotation Yrotation
            JOINT LeftFoot
            {
                OFFSET -0.000000 -35.840691 0.000000
                CHANNELS 3 Zrotation Xrotation Yrotation
                JOINT LeftToeBase
                {
                    OFFSET -0.000000 -5.774395 13.325527
                    CHANNELS 3 Zrotation Xrotation Yrotation
                    End Site
                    {
                        OFFSET -0.000000 0.000000 3.553473
                    }
                }
            }
        }
    }
    JOINT RightUpLeg
    {
        OFFSET -8.883684 0.000000 0.000000
        CHANNELS 3 Zrotation Xrotation Yrotation
        JOINT RightLeg
        {
            OFFSET -0.000000 -38.184189 0.000000
            CHANNELS 3 Zrotation Xrotation Yrotation
            JOINT RightFoot
            {
                OFFSET -0.000000 -35.840691 0.000000
                CHANNELS 3 Zrotation Xrotation Yrotation
                JOINT RightToeBase
                {
                    OFFSET -0.000000 -5.774395 13.325527
                    CHANNELS 3 Zrotation Xrotation Yrotation
                    End Site
                    {
                        OFFSET -0.000000 0.000000 3.553473
                    }
                }
            }
        }
    }
}
MOTION
Frames:    4
Frame Time:    0.008333
7.534924    81.315796    122.224319    3.186162    -1.871811    12.490806    -1.485786    -1.199705    -0.866193    -2.277899    9.415208    -0.095708    2.579778    -2.543821    -3.787224    -1.439543    1.349161    -3.425397    0.963213    8.267808    -6.920537    -76.841225    36.623318    -10.391028    15.792669    -3.600806    -6.902783    -16.511892    -35.794014    -13.569199    4.645242    1.589329    7.658394    -0.000000    0.000000    6.060922    -0.000000    0.000000    12.121845    4.122045    -0.366150    -5.067351    0.000000    0.000000    0.000000    0.000000    0.000000    0.000000    -7.361156    -1.240766    0.428351    -20.330467    0.000000    0.000000    -10.165233    0.000000    0.000000    -18.719782    -3.186888    5.645344    -40.660931    0.000000    0.000000    -20.330465    0.000000    0.000000    -30.230352    -6.217213    10.528196    -61.607468    0.000000    0.000000    -30.803734    0.000000    0.000000    -2.046062    1.535220    0.788555    89.387863    54.522594    -6.492396    -12.010054    -15.546582    10.955035    19.143150    -53.868633    11.465893    -1.065729    0.246610    -1.214720    0.000000    0.000000    -1.295146    0.000000    0.000000    -2.590293    5.077930    0.011074    0.124623    10.155887    0.000000    -0.000000    5.077942    0.000000    -0.000000    13.601694    -0.086662    -0.162076    27.203859    0.000000    -0.000000    13.601930    0.000000    -0.000000    22.124912    -0.225813    -0.431124    44.251842    0.000000    -0.000000    22.125916    0.000000    -0.000000    30.905764    -0.409238    -0.683592    61.816422    0.000000    -0.000000    30.908207    0.000000    -0.000000    -4.873910    0.387440    -3.213176    -1.356607    5.397726    -7.753796    -1.059404    -3.329789    -7.580075    0.833196    3.117614    -1.017938    -1.402874    1.334502    -1.524402    1.532991    10.901459    -7.519771    -2.452021    -9.342364    -10.733323    -1.070223    -0.141547    1.828602    
7.541279    81.316132    122.222748    3.189894    -1.866363    12.555626    -1.479825    -1.211464    -0.864532    -2.290282    9.409563    -0.094034    2.599638    -2.508891    -3.845918    -1.417859    1.370098    -3.485835    0.978912    8.258460    -6.933157    -76.868660    36.635830    -10.385201    15.765714    -3.597011    -6.866862    -16.512287    -35.794525    -13.569882    4.639741    1.585958    7.647621    -0.000000    0.000000    6.047993    -0.000000    0.000000    12.095986    4.110126    -0.366960    -5.093209    0.000000    0.000000    0.000000    0.000000    0.000000    0.000000    -7.416634    -1.259241    0.448897    -20.427773    0.000000    0.000000    -10.213886    0.000000    0.000000    -18.815750    -3.235735    5.706563    -40.855545    0.000000    0.000000    -20.427774    0.000000    0.000000    -30.364113    -6.308359    10.622633    -61.902336    0.000000    0.000000    -30.951168    0.000000    0.000000    -2.044708    1.521497    0.781069    89.406387    54.554272    -6.510866    -11.994208    -15.589157    10.944435    19.110302    -53.834091    11.411929    -1.059564    0.246527    -1.210074    0.000000    0.000000    -1.291294    0.000000    0.000000    -2.582586    5.082055    0.012267    0.137932    10.164139    0.000000    -0.000000    5.082069    0.000000    -0.000000    13.612094    -0.084487    -0.151279    27.224628    0.000000    -0.000000    13.612312    0.000000    -0.000000    22.141579    -0.223067    -0.422941    44.285130    0.000000    -0.000000    22.142563    0.000000    -0.000000    30.928892    -0.406345    -0.678139    61.862591    0.000000    -0.000000    30.931295    0.000000    -0.000000    -4.880081    0.381671    -3.202082    -1.354525    5.396816    -7.788102    -1.062000    -3.321605    -7.618363    0.833460    3.111825    -1.020546    -1.407624    1.331599    -1.519706    1.538863    10.915355    -7.553214    -2.447996    -9.353710    -10.769335    -1.070346    -0.139439    1.828694    
7.547727    81.316452    122.221306    3.193687    -1.861396    12.618891    -1.474223    -1.222697    -0.861387    -2.302391    9.404135    -0.092102    2.619946    -2.471181    -3.905128    -1.394590    1.378499    -3.547057    0.993425    8.249116    -6.944662    -76.895088    36.648163    -10.380116    15.739100    -3.593433    -6.830410    -16.508446    -35.791691    -13.566927    4.633790    1.582763    7.636627    -0.000000    0.000000    6.035330    -0.000000    0.000000    12.070658    4.098505    -0.367766    -5.118784    0.000000    0.000000    0.000000    0.000000    0.000000    0.000000    -7.459595    -1.272012    0.457507    -20.499598    0.000000    0.000000    -10.249802    0.000000    0.000000    -18.887844    -3.269825    5.745340    -40.999191    0.000000    0.000000    -20.499603    0.000000    0.000000    -30.463385    -6.372560    10.686301    -62.120003    0.000000    0.000000    -31.060001    0.000000    0.000000    -2.043041    1.508045    0.773153    89.424911    54.588356    -6.529801    -11.980310    -15.630834    10.933620    19.080770    -53.800957    11.360705    -1.054067    0.245802    -1.204826    0.000000    0.000000    -1.286875    0.000000    0.000000    -2.573750    5.083747    0.013465    0.151353    10.167531    0.000000    -0.000000    5.083766    0.000000    -0.000000    13.620667    -0.082288    -0.140394    27.241755    0.000000    -0.000000    13.620875    0.000000    -0.000000    22.157040    -0.220288    -0.414697    44.315971    0.000000    -0.000000    22.157986    0.000000    -0.000000    30.951431    -0.403416    -0.672652    61.907593    0.000000    -0.000000    30.953802    0.000000    -0.000000    -4.886553    0.377455    -3.190794    -1.351933    5.393958    -7.814574    -1.065140    -3.312497    -7.663345    0.833681    3.106004    -1.023060    -1.412389    1.328849    -1.515148    1.543925    10.930019    -7.583102    -2.443716    -9.365458    -10.807075    -1.070425    -0.137655    1.828726    
7.554298    81.316711    122.220078    3.197436    -1.857193    12.679328    -1.469020    -1.233203    -0.855949    -2.314419    9.399405    -0.089501    2.641671    -2.430619    -3.965258    -1.369989    1.368997    -3.609391    1.006297    8.240242    -6.954171    -76.919754    36.659737    -10.376430    15.713655    -3.590125    -6.793933    -16.498510    -35.783688    -13.559037    4.627314    1.580319    7.626159    -0.000000    0.000000    6.024249    -0.000000    0.000000    12.048499    4.088163    -0.368403    -5.140549    0.000000    0.000000    0.000000    0.000000    0.000000    0.000000    -7.482140    -1.275817    0.449961    -20.531017    0.000000    0.000000    -10.265509    0.000000    0.000000    -18.921820    -3.280666    5.750715    -41.062031    0.000000    0.000000    -20.531017    0.000000    0.000000    -30.508041    -6.394105    10.702795    -62.215202    0.000000    0.000000    -31.107601    0.000000    0.000000    -2.040548    1.495774    0.764684    89.441498    54.625420    -6.547327    -11.969836    -15.668835    10.922275    19.057547    -53.771526    11.315182    -1.049881    0.244167    -1.199005    0.000000    0.000000    -1.281964    0.000000    0.000000    -2.563928    5.081511    0.013908    0.156400    10.163061    0.000000    -0.000000    5.081530    0.000000    -0.000000    13.625905    -0.081155    -0.135470    27.252207    0.000000    -0.000000    13.626100    0.000000    -0.000000    22.169744    -0.218526    -0.409978    44.341354    0.000000    -0.000000    22.170675    0.000000    -0.000000    30.971838    -0.401079    -0.668216    61.948353    0.000000    -0.000000    30.974174    0.000000    -0.000000    -4.893208    0.375690    -3.179611    -1.348905    5.387884    -7.828523    -1.068916    -3.301830    -7.718203    0.833747    3.100239    -1.025181    -1.416988    1.326272    -1.510692    1.547687    10.945667    -7.607828    -2.439091    -9.377659    -10.846884    -1.070487    -0.136269    1.828755    
